# xmcd
#
# Track frame offsets:
#	150
#	22321
#	43945
#	61619
#	84288
#	108914
#	131792
#	151712
#	172224
#	191089
#	211127
#	215679
#
# Disc length: 3157 seconds
#
# Revision: 1
# Processed by: cddbd v1.5.2PL0 Copyright (c) Steve Scherf et al.
# Submitted via: audiograbber 1.83.01
#
DISCID=a90c530c
DTITLE=Drew Nelson - Dusty Road To Beulah Land
DYEAR=2009
DGENRE=Alternative Country
TTITLE0=Highway 2
TTITLE1=Waiting For The Sun
TTITLE2=Stranger
TTITLE3=Grandmother Moon
TTITLE4=True and Fine
TTITLE5=Farmer's Lament
TTITLE6=Half A Mile Down
TTITLE7=Raindance
TTITLE8=Hello
TTITLE9=Molly's Home
TTITLE10=(untiteld_01)
TTITLE11=(untiteld)
EXTD=
EXTT0=
EXTT1=
EXTT2=
EXTT3=
EXTT4=
EXTT5=
EXTT6=
EXTT7=
EXTT8=
EXTT9=
EXTT10=
EXTT11=
PLAYORDER=
